<svg id="my-svg" width="100%" xmlns="http://www.w3.org/2000/svg" xmlns:xlink="http://www.w3.org/1999/xlink" class="erDiagram" style="max-width: 966.762px; background-color: white;" viewBox="0 0 966.76171875 661" role="graphics-document document" aria-roledescription="er"><style>#my-svg{font-family:"trebuchet ms",verdana,arial,sans-serif;font-size:16px;fill:#333;}@keyframes edge-animation-frame{from{stroke-dashoffset:0;}}@keyframes dash{to{stroke-dashoffset:0;}}#my-svg .edge-animation-slow{stroke-dasharray:9,5!important;stroke-dashoffset:900;animation:dash 50s linear infinite;stroke-linecap:round;}#my-svg .edge-animation-fast{stroke-dasharray:9,5!important;stroke-dashoffset:900;animation:dash 20s linear infinite;stroke-linecap:round;}#my-svg .error-icon{fill:#552222;}#my-svg .error-text{fill:#552222;stroke:#552222;}#my-svg .edge-thickness-normal{stroke-width:1px;}#my-svg .edge-thickness-thick{stroke-width:3.5px;}#my-svg .edge-pattern-solid{stroke-dasharray:0;}#my-svg .edge-thickness-invisible{stroke-width:0;fill:none;}#my-svg .edge-pattern-dashed{stroke-dasharray:3;}#my-svg .edge-pattern-dotted{stroke-dasharray:2;}#my-svg .marker{fill:#333333;stroke:#333333;}#my-svg .marker.cross{stroke:#333333;}#my-svg svg{font-family:"trebuchet ms",verdana,arial,sans-serif;font-size:16px;}#my-svg p{margin:0;}#my-svg .entityBox{fill:#ECECFF;stroke:#9370DB;}#my-svg .relationshipLabelBox{fill:hsl(80, 100%, 96.2745098039%);opacity:0.7;background-color:hsl(80, 100%, 96.2745098039%);}#my-svg .relationshipLabelBox rect{opacity:0.5;}#my-svg .labelBkg{background-color:rgba(248.6666666666, 255, 235.9999999999, 0.5);}#my-svg .edgeLabel .label{fill:#9370DB;font-size:14px;}#my-svg .label{font-family:"trebuchet ms",verdana,arial,sans-serif;color:#333;}#my-svg .edge-pattern-dashed{stroke-dasharray:8,8;}#my-svg .node rect,#my-svg .node circle,#my-svg .node ellipse,#my-svg .node polygon{fill:#ECECFF;stroke:#9370DB;stroke-width:1px;}#my-svg .relationshipLine{stroke:#333333;stroke-width:1;fill:none;}#my-svg .marker{fill:none!important;stroke:#333333!important;stroke-width:1;}#my-svg :root{--mermaid-font-family:"trebuchet ms",verdana,arial,sans-serif;}</style><g><defs><marker id="my-svg_er-onlyOneStart" class="marker onlyOne er" refX="0" refY="9" markerWidth="18" markerHeight="18" orient="auto"><path d="M9,0 L9,18 M15,0 L15,18"/></marker></defs><defs><marker id="my-svg_er-onlyOneEnd" class="marker onlyOne er" refX="18" refY="9" markerWidth="18" markerHeight="18" orient="auto"><path d="M3,0 L3,18 M9,0 L9,18"/></marker></defs><defs><marker id="my-svg_er-zeroOrOneStart" class="marker zeroOrOne er" refX="0" refY="9" markerWidth="30" markerHeight="18" orient="auto"><circle fill="white" cx="21" cy="9" r="6"/><path d="M9,0 L9,18"/></marker></defs><defs><marker id="my-svg_er-zeroOrOneEnd" class="marker zeroOrOne er" refX="30" refY="9" markerWidth="30" markerHeight="18" orient="auto"><circle fill="white" cx="9" cy="9" r="6"/><path d="M21,0 L21,18"/></marker></defs><defs><marker id="my-svg_er-oneOrMoreStart" class="marker oneOrMore er" refX="18" refY="18" markerWidth="45" markerHeight="36" orient="auto"><path d="M0,18 Q 18,0 36,18 Q 18,36 0,18 M42,9 L42,27"/></marker></defs><defs><marker id="my-svg_er-oneOrMoreEnd" class="marker oneOrMore er" refX="27" refY="18" markerWidth="45" markerHeight="36" orient="auto"><path d="M3,9 L3,27 M9,18 Q27,0 45,18 Q27,36 9,18"/></marker></defs><defs><marker id="my-svg_er-zeroOrMoreStart" class="marker zeroOrMore er" refX="18" refY="18" markerWidth="57" markerHeight="36" orient="auto"><circle fill="white" cx="48" cy="18" r="6"/><path d="M0,18 Q18,0 36,18 Q18,36 0,18"/></marker></defs><defs><marker id="my-svg_er-zeroOrMoreEnd" class="marker zeroOrMore er" refX="39" refY="18" markerWidth="57" markerHeight="36" orient="auto"><circle fill="white" cx="9" cy="18" r="6"/><path d="M21,18 Q39,0 57,18 Q39,36 21,18"/></marker></defs><g class="root"><g class="clusters"/><g class="edgePaths"><path d="M492.277,64.903L423.814,78.086C355.352,91.269,218.426,117.634,149.963,139.234C81.5,160.833,81.5,177.667,81.5,186.083L81.5,194.5" id="id_entity-USER-0_entity-LIBRARIAN-1_0" class="edge-thickness-normal edge-pattern-solid relationshipLine" style="undefined;;;undefined" data-edge="true" data-et="edge" data-id="id_entity-USER-0_entity-LIBRARIAN-1_0" data-points="W3sieCI6NDkyLjI3NzM0Mzc1LCJ5Ijo2NC45MDI3ODg4Njg3MjM1M30seyJ4Ijo4MS41LCJ5IjoxNDR9LHsieCI6ODEuNSwieSI6MTk0LjV9XQ==" marker-start="url(#my-svg_er-onlyOneStart)" marker-end="url(#my-svg_er-onlyOneEnd)"/><path d="M498.336,93.5L485.058,101.917C471.78,110.333,445.224,127.167,431.946,144C418.668,160.833,418.668,177.667,418.668,186.083L418.668,194.5" id="id_entity-USER-0_entity-LIBRARY_ADMIN-2_1" class="edge-thickness-normal edge-pattern-solid relationshipLine" style="undefined;;;undefined" data-edge="true" data-et="edge" data-id="id_entity-USER-0_entity-LIBRARY_ADMIN-2_1" data-points="W3sieCI6NDk4LjMzNTc4MDQxMjE5ODQsInkiOjkzLjV9LHsieCI6NDE4LjY2Nzk2ODc1LCJ5IjoxNDR9LHsieCI6NDE4LjY2Nzk2ODc1LCJ5IjoxOTQuNX1d" marker-start="url(#my-svg_er-onlyOneStart)" marker-end="url(#my-svg_er-onlyOneEnd)"/><path d="M70.691,280L68.563,288.417C66.434,296.833,62.178,313.667,90.941,332.894C119.703,352.121,181.484,373.743,212.375,384.554L243.266,395.364" id="id_entity-LIBRARIAN-1_entity-BOOK-3_2" class="edge-thickness-normal edge-pattern-solid relationshipLine" style="undefined;;;undefined" data-edge="true" data-et="edge" data-id="id_entity-LIBRARIAN-1_entity-BOOK-3_2" data-points="W3sieCI6NzAuNjkwNzI1NTM2MTkzMDMsInkiOjI4MH0seyJ4Ijo1Ny45MjE4NzUsInkiOjMzMC41fSx7IngiOjI0My4yNjU2MjUsInkiOjM5NS4zNjQzMzQ3MjExNjM0Nn1d" marker-start="url(#my-svg_er-onlyOneStart)" marker-end="url(#my-svg_er-oneOrMoreEnd)"/><path d="M375.44,280L366.929,288.417C358.418,296.833,341.397,313.667,332.886,330.5C324.375,347.333,324.375,364.167,324.375,372.583L324.375,381" id="id_entity-LIBRARY_ADMIN-2_entity-BOOK-3_3" class="edge-thickness-normal edge-pattern-solid relationshipLine" style="undefined;;;undefined" data-edge="true" data-et="edge" data-id="id_entity-LIBRARY_ADMIN-2_entity-BOOK-3_3" data-points="W3sieCI6Mzc1LjQzOTgyNDg5OTQ2MzgsInkiOjI4MH0seyJ4IjozMjQuMzc1LCJ5IjozMzAuNX0seyJ4IjozMjQuMzc1LCJ5IjozODF9XQ==" marker-start="url(#my-svg_er-onlyOneStart)" marker-end="url(#my-svg_er-oneOrMoreEnd)"/><path d="M292.472,466.5L286.191,474.917C279.91,483.333,267.347,500.167,267.347,517C267.347,533.833,279.91,550.667,286.191,559.083L292.472,567.5" id="id_entity-BOOK-3_entity-BOOK_CATEGORY-4_4" class="edge-thickness-normal edge-pattern-solid relationshipLine" style="undefined;;;undefined" data-edge="true" data-et="edge" data-id="id_entity-BOOK-3_entity-BOOK_CATEGORY-4_4" data-points="W3sieCI6MjkyLjQ3MTg4MTI4MzUxMjA2LCJ5Ijo0NjYuNX0seyJ4IjoyNTQuNzg1MTU2MjUsInkiOjUxN30seyJ4IjoyOTIuNDcxODgxMjgzNTEyMDYsInkiOjU2Ny41fV0=" marker-start="url(#my-svg_er-oneOrMoreStart)" marker-end="url(#my-svg_er-oneOrMoreEnd)"/><path d="M712.887,280L712.887,288.417C712.887,296.833,712.887,313.667,661.653,334.38C610.419,355.094,507.952,379.688,456.718,391.985L405.484,404.282" id="id_entity-BORROWER-5_entity-BOOK-3_5" class="edge-thickness-normal edge-pattern-solid relationshipLine" style="undefined;;;undefined" data-edge="true" data-et="edge" data-id="id_entity-BORROWER-5_entity-BOOK-3_5" data-points="W3sieCI6NzEyLjg4NjcxODc1LCJ5IjoyODB9LHsieCI6NzEyLjg4NjcxODc1LCJ5IjozMzAuNX0seyJ4Ijo0MDUuNDg0Mzc1LCJ5Ijo0MDQuMjgyMjQ5NDY5NjMwN31d" marker-start="url(#my-svg_er-zeroOrMoreStart)" marker-end="url(#my-svg_er-onlyOneEnd)"/><path d="M633.219,93.5L646.497,101.917C659.775,110.333,686.331,127.167,699.609,144C712.887,160.833,712.887,177.667,712.887,186.083L712.887,194.5" id="id_entity-USER-0_entity-BORROWER-5_6" class="edge-thickness-normal edge-pattern-solid relationshipLine" style="undefined;;;undefined" data-edge="true" data-et="edge" data-id="id_entity-USER-0_entity-BORROWER-5_6" data-points="W3sieCI6NjMzLjIxODkwNzA4NzgwMTcsInkiOjkzLjV9LHsieCI6NzEyLjg4NjcxODc1LCJ5IjoxNDR9LHsieCI6NzEyLjg4NjcxODc1LCJ5IjoxOTQuNX1d" marker-start="url(#my-svg_er-onlyOneStart)" marker-end="url(#my-svg_er-onlyOneEnd)"/><path d="M105.038,280L109.673,288.417C114.307,296.833,123.575,313.667,128.21,337.625C132.844,361.583,132.844,392.667,132.844,423.75C132.844,454.833,132.844,485.917,150.387,509.999C167.93,534.082,203.016,551.164,220.559,559.705L238.102,568.246" id="id_entity-LIBRARIAN-1_entity-BOOK_CATEGORY-4_7" class="edge-thickness-normal edge-pattern-solid relationshipLine" style="undefined;;;undefined" data-edge="true" data-et="edge" data-id="id_entity-LIBRARIAN-1_entity-BOOK_CATEGORY-4_7" data-points="W3sieCI6MTA1LjAzODI4NzUzMzUxMjA2LCJ5IjoyODB9LHsieCI6MTMyLjg0Mzc1LCJ5IjozMzAuNX0seyJ4IjoxMzIuODQzNzUsInkiOjQyMy43NX0seyJ4IjoxMzIuODQzNzUsInkiOjUxN30seyJ4IjoyMzguMTAxNTYyNSwieSI6NTY4LjI0NjQyMDcwNDg0NTh9XQ==" marker-start="url(#my-svg_er-onlyOneStart)" marker-end="url(#my-svg_er-onlyOneEnd)"/><path d="M475.818,280L487.07,288.417C498.321,296.833,520.825,313.667,532.076,337.625C543.328,361.583,543.328,392.667,543.328,423.75C543.328,454.833,543.328,485.917,521.215,510.876C499.102,535.836,454.875,554.671,432.762,564.089L410.648,573.507" id="id_entity-LIBRARY_ADMIN-2_entity-BOOK_CATEGORY-4_8" class="edge-thickness-normal edge-pattern-solid relationshipLine" style="undefined;;;undefined" data-edge="true" data-et="edge" data-id="id_entity-LIBRARY_ADMIN-2_entity-BOOK_CATEGORY-4_8" data-points="W3sieCI6NDc1LjgxNzc5OTA5NTE3NDMsInkiOjI4MH0seyJ4Ijo1NDMuMzI4MTI1LCJ5IjozMzAuNX0seyJ4Ijo1NDMuMzI4MTI1LCJ5Ijo0MjMuNzV9LHsieCI6NTQzLjMyODEyNSwieSI6NTE3fSx7IngiOjQxMC42NDg0Mzc1LCJ5Ijo1NzMuNTA2OTg0NTg1NzQxOX1d" marker-start="url(#my-svg_er-onlyOneStart)" marker-end="url(#my-svg_er-onlyOneEnd)"/><path d="M405.484,410.891L489.999,397.493C574.514,384.094,743.544,357.297,828.059,328.357C912.574,299.417,912.574,268.333,912.574,237.25C912.574,206.167,912.574,175.083,867.025,147.294C821.475,119.504,730.376,95.009,684.827,82.761L639.277,70.513" id="id_entity-BOOK-3_entity-USER-0_9" class="edge-thickness-normal edge-pattern-solid relationshipLine" style="undefined;;;undefined" data-edge="true" data-et="edge" data-id="id_entity-BOOK-3_entity-USER-0_9" data-points="W3sieCI6NDA1LjQ4NDM3NSwieSI6NDEwLjg5MTM0NzczMTA5MTM0fSx7IngiOjkxMi41NzQyMTg3NSwieSI6MzMwLjV9LHsieCI6OTEyLjU3NDIxODc1LCJ5IjoyMzcuMjV9LHsieCI6OTEyLjU3NDIxODc1LCJ5IjoxNDR9LHsieCI6NjM5LjI3NzM0Mzc1LCJ5Ijo3MC41MTMzNzAxMjg0MDczfV0=" marker-start="url(#my-svg_er-onlyOneStart)" marker-end="url(#my-svg_er-oneOrMoreEnd)"/><path d="M370.945,567.5L380.113,559.083C389.282,550.667,407.62,533.833,407.62,517C407.62,500.167,389.282,483.333,380.113,474.917L370.945,466.5" id="id_entity-BOOK_CATEGORY-4_entity-BOOK-3_10" class="edge-thickness-normal edge-pattern-solid relationshipLine" style="undefined;;;undefined" data-edge="true" data-et="edge" data-id="id_entity-BOOK_CATEGORY-4_entity-BOOK-3_10" data-points="W3sieCI6MzcwLjk0NDc3ODQwMTQ3NDU0LCJ5Ijo1NjcuNX0seyJ4Ijo0MjUuOTU3MDMxMjUsInkiOjUxN30seyJ4IjozNzAuOTQ0Nzc4NDAxNDc0NTQsInkiOjQ2Ni41fV0=" marker-start="url(#my-svg_er-onlyOneStart)" marker-end="url(#my-svg_er-onlyOneEnd)"/></g><g class="edgeLabels"><g class="edgeLabel" transform="translate(81.5, 144)"><g class="label" data-id="id_entity-USER-0_entity-LIBRARIAN-1_0" transform="translate(-4.8359375, -10.5)"><foreignObject width="9.671875" height="21"><div xmlns="http://www.w3.org/1999/xhtml" class="labelBkg" style="display: table-cell; white-space: nowrap; line-height: 1.5; max-width: 200px; text-align: center;"><span class="edgeLabel"><p>is</p></span></div></foreignObject></g></g><g class="edgeLabel" transform="translate(418.66796875, 144)"><g class="label" data-id="id_entity-USER-0_entity-LIBRARY_ADMIN-2_1" transform="translate(-4.8359375, -10.5)"><foreignObject width="9.671875" height="21"><div xmlns="http://www.w3.org/1999/xhtml" class="labelBkg" style="display: table-cell; white-space: nowrap; line-height: 1.5; max-width: 200px; text-align: center;"><span class="edgeLabel"><p>is</p></span></div></foreignObject></g></g><g class="edgeLabel" transform="translate(126.01105, 354.32902)"><g class="label" data-id="id_entity-LIBRARIAN-1_entity-BOOK-3_2" transform="translate(-27.15625, -10.5)"><foreignObject width="54.3125" height="21"><div xmlns="http://www.w3.org/1999/xhtml" class="labelBkg" style="display: table-cell; white-space: nowrap; line-height: 1.5; max-width: 200px; text-align: center;"><span class="edgeLabel"><p>manages</p></span></div></foreignObject></g></g><g class="edgeLabel" transform="translate(324.375, 330.5)"><g class="label" data-id="id_entity-LIBRARY_ADMIN-2_entity-BOOK-3_3" transform="translate(-27.03125, -10.5)"><foreignObject width="54.0625" height="21"><div xmlns="http://www.w3.org/1999/xhtml" class="labelBkg" style="display: table-cell; white-space: nowrap; line-height: 1.5; max-width: 200px; text-align: center;"><span class="edgeLabel"><p>oversees</p></span></div></foreignObject></g></g><g class="edgeLabel" transform="translate(254.78515625, 517)"><g class="label" data-id="id_entity-BOOK-3_entity-BOOK_CATEGORY-4_4" transform="translate(-32.3515625, -10.5)"><foreignObject width="64.703125" height="21"><div xmlns="http://www.w3.org/1999/xhtml" class="labelBkg" style="display: table-cell; white-space: nowrap; line-height: 1.5; max-width: 200px; text-align: center;"><span class="edgeLabel"><p>belongs to</p></span></div></foreignObject></g></g><g class="edgeLabel" transform="translate(712.88671875, 330.5)"><g class="label" data-id="id_entity-BORROWER-5_entity-BOOK-3_5" transform="translate(-24.8984375, -10.5)"><foreignObject width="49.796875" height="21"><div xmlns="http://www.w3.org/1999/xhtml" class="labelBkg" style="display: table-cell; white-space: nowrap; line-height: 1.5; max-width: 200px; text-align: center;"><span class="edgeLabel"><p>borrows</p></span></div></foreignObject></g></g><g class="edgeLabel" transform="translate(712.88671875, 144)"><g class="label" data-id="id_entity-USER-0_entity-BORROWER-5_6" transform="translate(-4.8359375, -10.5)"><foreignObject width="9.671875" height="21"><div xmlns="http://www.w3.org/1999/xhtml" class="labelBkg" style="display: table-cell; white-space: nowrap; line-height: 1.5; max-width: 200px; text-align: center;"><span class="edgeLabel"><p>is</p></span></div></foreignObject></g></g><g class="edgeLabel" transform="translate(132.84375, 423.75)"><g class="label" data-id="id_entity-LIBRARIAN-1_entity-BOOK_CATEGORY-4_7" transform="translate(-30.421875, -10.5)"><foreignObject width="60.84375" height="21"><div xmlns="http://www.w3.org/1999/xhtml" class="labelBkg" style="display: table-cell; white-space: nowrap; line-height: 1.5; max-width: 200px; text-align: center;"><span class="edgeLabel"><p>maintains</p></span></div></foreignObject></g></g><g class="edgeLabel" transform="translate(543.328125, 423.75)"><g class="label" data-id="id_entity-LIBRARY_ADMIN-2_entity-BOOK_CATEGORY-4_8" transform="translate(-27.4765625, -10.5)"><foreignObject width="54.953125" height="21"><div xmlns="http://www.w3.org/1999/xhtml" class="labelBkg" style="display: table-cell; white-space: nowrap; line-height: 1.5; max-width: 200px; text-align: center;"><span class="edgeLabel"><p>monitors</p></span></div></foreignObject></g></g><g class="edgeLabel" transform="translate(912.57421875, 237.25)"><g class="label" data-id="id_entity-BOOK-3_entity-USER-0_9" transform="translate(-46.1875, -10.5)"><foreignObject width="92.375" height="21"><div xmlns="http://www.w3.org/1999/xhtml" class="labelBkg" style="display: table-cell; white-space: nowrap; line-height: 1.5; max-width: 200px; text-align: center;"><span class="edgeLabel"><p>is borrowed by</p></span></div></foreignObject></g></g><g class="edgeLabel" transform="translate(425.95703125, 517)"><g class="label" data-id="id_entity-BOOK_CATEGORY-4_entity-BOOK-3_10" transform="translate(-26.15625, -10.5)"><foreignObject width="52.3125" height="21"><div xmlns="http://www.w3.org/1999/xhtml" class="labelBkg" style="display: table-cell; white-space: nowrap; line-height: 1.5; max-width: 200px; text-align: center;"><span class="edgeLabel"><p>contains</p></span></div></foreignObject></g></g></g><g class="nodes"><g class="node default" id="entity-USER-0" transform="translate(565.77734375, 50.75)"><g style=""><path d="M-73.5 -42.75 L73.5 -42.75 L73.5 42.75 L-73.5 42.75" stroke="none" stroke-width="0" fill="#ECECFF"/><path d="M-73.5 -42.75 C-38.42484726697071 -42.75, -3.349694533941417 -42.75, 73.5 -42.75 M-73.5 -42.75 C-32.36697608869027 -42.75, 8.766047822619456 -42.75, 73.5 -42.75 M73.5 -42.75 C73.5 -15.981588311152272, 73.5 10.786823377695455, 73.5 42.75 M73.5 -42.75 C73.5 -17.301926062493873, 73.5 8.146147875012254, 73.5 42.75 M73.5 42.75 C36.55888569656336 42.75, -0.38222860687328364 42.75, -73.5 42.75 M73.5 42.75 C30.63298821685447 42.75, -12.234023566291057 42.75, -73.5 42.75 M-73.5 42.75 C-73.5 19.869776829672123, -73.5 -3.0104463406557542, -73.5 -42.75 M-73.5 42.75 C-73.5 19.948101674581952, -73.5 -2.8537966508360952, -73.5 -42.75" stroke="#9370DB" stroke-width="1.3" fill="none" stroke-dasharray="0 0"/></g><g style="" class="row-rect-odd"><path d="M-73.5 0 L73.5 0 L73.5 42.75 L-73.5 42.75" stroke="none" stroke-width="0" fill="hsl(240, 100%, 100%)"/><path d="M-73.5 0 C-22.94725507148639 0, 27.605489857027223 0, 73.5 0 M-73.5 0 C-14.922750356458053 0, 43.654499287083894 0, 73.5 0 M73.5 0 C73.5 10.787026199957367, 73.5 21.574052399914734, 73.5 42.75 M73.5 0 C73.5 12.383660770001354, 73.5 24.76732154000271, 73.5 42.75 M73.5 42.75 C41.08584065437083 42.75, 8.671681308741654 42.75, -73.5 42.75 M73.5 42.75 C16.389213688323913 42.75, -40.72157262335217 42.75, -73.5 42.75 M-73.5 42.75 C-73.5 34.11445864745133, -73.5 25.478917294902654, -73.5 0 M-73.5 42.75 C-73.5 26.08216668243405, -73.5 9.4143333648681, -73.5 0" stroke="#9370DB" stroke-width="1.3" fill="none" stroke-dasharray="0 0"/></g><g class="label name" transform="translate(-17.9765625, -33.375)" style=""><foreignObject width="35.953125" height="24"><div xmlns="http://www.w3.org/1999/xhtml" style="display: table-cell; white-space: nowrap; line-height: 1.5; max-width: 143px; text-align: start;"><span class="nodeLabel"><p>USER</p></span></div></foreignObject></g><g class="label attribute-type" transform="translate(-61, 9.375)" style=""><foreignObject width="40.375" height="24"><div xmlns="http://www.w3.org/1999/xhtml" style="display: table-cell; white-space: nowrap; line-height: 1.5; max-width: 136px; text-align: start;"><span class="nodeLabel"><p>string</p></span></div></foreignObject></g><g class="label attribute-name" transform="translate(4.375, 9.375)" style=""><foreignObject width="13.484375" height="24"><div xmlns="http://www.w3.org/1999/xhtml" style="display: table-cell; white-space: nowrap; line-height: 1.5; max-width: 113px; text-align: start;"><span class="nodeLabel"><p>id</p></span></div></foreignObject></g><g class="label attribute-keys" transform="translate(42.859375, 9.375)" style=""><foreignObject width="18.140625" height="24"><div xmlns="http://www.w3.org/1999/xhtml" style="display: table-cell; white-space: nowrap; line-height: 1.5; max-width: 122px; text-align: start;"><span class="nodeLabel"><p>PK</p></span></div></foreignObject></g><g class="label attribute-comment" transform="translate(86, 9.375)" style=""><foreignObject width="0" height="0"><div xmlns="http://www.w3.org/1999/xhtml" style="display: table-cell; white-space: nowrap; line-height: 1.5; max-width: 100px; text-align: start;"><span class="nodeLabel"></span></div></foreignObject></g><g class="divider"><path d="M-73.5 0 C-38.52009162321483 0, -3.540183246429663 0, 73.5 0 M-73.5 0 C-33.80916677048901 0, 5.881666459021986 0, 73.5 0" stroke="#9370DB" stroke-width="1.3" fill="none" stroke-dasharray="0 0"/></g><g class="divider"><path d="M-8.125 0 C-8.125 11.411998731059388, -8.125 22.823997462118776, -8.125 42.75 M-8.125 0 C-8.125 16.02912574129569, -8.125 32.05825148259138, -8.125 42.75" stroke="#9370DB" stroke-width="1.3" fill="none" stroke-dasharray="0 0"/></g><g class="divider"><path d="M30.359375 0 C30.359375 16.583526264312574, 30.359375 33.16705252862515, 30.359375 42.75 M30.359375 0 C30.359375 10.492432740066983, 30.359375 20.984865480133966, 30.359375 42.75" stroke="#9370DB" stroke-width="1.3" fill="none" stroke-dasharray="0 0"/></g><g class="divider"><path d="M-73.5 0 C-18.938179899808425 0, 35.62364020038315 0, 73.5 0 M-73.5 0 C-40.38004830473536 0, -7.260096609470722 0, 73.5 0" stroke="#9370DB" stroke-width="1.3" fill="none" stroke-dasharray="0 0"/></g></g><g class="node default" id="entity-LIBRARIAN-1" transform="translate(81.5, 237.25)"><g style=""><path d="M-73.5 -42.75 L73.5 -42.75 L73.5 42.75 L-73.5 42.75" stroke="none" stroke-width="0" fill="#ECECFF"/><path d="M-73.5 -42.75 C-28.366324665035485 -42.75, 16.76735066992903 -42.75, 73.5 -42.75 M-73.5 -42.75 C-34.16207099866034 -42.75, 5.17585800267932 -42.75, 73.5 -42.75 M73.5 -42.75 C73.5 -14.030194672692922, 73.5 14.689610654614157, 73.5 42.75 M73.5 -42.75 C73.5 -15.316442998120245, 73.5 12.11711400375951, 73.5 42.75 M73.5 42.75 C20.77747214029661 42.75, -31.94505571940678 42.75, -73.5 42.75 M73.5 42.75 C38.78459929081378 42.75, 4.06919858162756 42.75, -73.5 42.75 M-73.5 42.75 C-73.5 19.623592057273978, -73.5 -3.502815885452044, -73.5 -42.75 M-73.5 42.75 C-73.5 14.914409509077924, -73.5 -12.921180981844152, -73.5 -42.75" stroke="#9370DB" stroke-width="1.3" fill="none" stroke-dasharray="0 0"/></g><g style="" class="row-rect-odd"><path d="M-73.5 0 L73.5 0 L73.5 42.75 L-73.5 42.75" stroke="none" stroke-width="0" fill="hsl(240, 100%, 100%)"/><path d="M-73.5 0 C-28.339796437281166 0, 16.82040712543767 0, 73.5 0 M-73.5 0 C-43.04812568292071 0, -12.596251365841425 0, 73.5 0 M73.5 0 C73.5 13.863785917434603, 73.5 27.727571834869206, 73.5 42.75 M73.5 0 C73.5 16.482446661962303, 73.5 32.964893323924606, 73.5 42.75 M73.5 42.75 C34.721868404606845 42.75, -4.056263190786311 42.75, -73.5 42.75 M73.5 42.75 C30.246038493660016 42.75, -13.007923012679967 42.75, -73.5 42.75 M-73.5 42.75 C-73.5 32.90234709228408, -73.5 23.054694184568167, -73.5 0 M-73.5 42.75 C-73.5 29.024274822682056, -73.5 15.298549645364112, -73.5 0" stroke="#9370DB" stroke-width="1.3" fill="none" stroke-dasharray="0 0"/></g><g class="label name" transform="translate(-36.890625, -33.375)" style=""><foreignObject width="73.78125" height="24"><div xmlns="http://www.w3.org/1999/xhtml" style="display: table-cell; white-space: nowrap; line-height: 1.5; max-width: 189px; text-align: start;"><span class="nodeLabel"><p>LIBRARIAN</p></span></div></foreignObject></g><g class="label attribute-type" transform="translate(-61, 9.375)" style=""><foreignObject width="40.375" height="24"><div xmlns="http://www.w3.org/1999/xhtml" style="display: table-cell; white-space: nowrap; line-height: 1.5; max-width: 136px; text-align: start;"><span class="nodeLabel"><p>string</p></span></div></foreignObject></g><g class="label attribute-name" transform="translate(4.375, 9.375)" style=""><foreignObject width="13.484375" height="24"><div xmlns="http://www.w3.org/1999/xhtml" style="display: table-cell; white-space: nowrap; line-height: 1.5; max-width: 113px; text-align: start;"><span class="nodeLabel"><p>id</p></span></div></foreignObject></g><g class="label attribute-keys" transform="translate(42.859375, 9.375)" style=""><foreignObject width="18.140625" height="24"><div xmlns="http://www.w3.org/1999/xhtml" style="display: table-cell; white-space: nowrap; line-height: 1.5; max-width: 122px; text-align: start;"><span class="nodeLabel"><p>PK</p></span></div></foreignObject></g><g class="label attribute-comment" transform="translate(86, 9.375)" style=""><foreignObject width="0" height="0"><div xmlns="http://www.w3.org/1999/xhtml" style="display: table-cell; white-space: nowrap; line-height: 1.5; max-width: 100px; text-align: start;"><span class="nodeLabel"></span></div></foreignObject></g><g class="divider"><path d="M-73.5 0 C-26.269359274733247 0, 20.961281450533505 0, 73.5 0 M-73.5 0 C-22.617982504698496 0, 28.264034990603008 0, 73.5 0" stroke="#9370DB" stroke-width="1.3" fill="none" stroke-dasharray="0 0"/></g><g class="divider"><path d="M-8.125 0 C-8.125 13.045056084414941, -8.125 26.090112168829883, -8.125 42.75 M-8.125 0 C-8.125 12.78469409314343, -8.125 25.56938818628686, -8.125 42.75" stroke="#9370DB" stroke-width="1.3" fill="none" stroke-dasharray="0 0"/></g><g class="divider"><path d="M30.359375 0 C30.359375 11.59778467805345, 30.359375 23.1955693561069, 30.359375 42.75 M30.359375 0 C30.359375 13.131898979142337, 30.359375 26.263797958284673, 30.359375 42.75" stroke="#9370DB" stroke-width="1.3" fill="none" stroke-dasharray="0 0"/></g><g class="divider"><path d="M-73.5 0 C-35.76362060239545 0, 1.9727587952091028 0, 73.5 0 M-73.5 0 C-42.85439901998676 0, -12.208798039973516 0, 73.5 0" stroke="#9370DB" stroke-width="1.3" fill="none" stroke-dasharray="0 0"/></g></g><g class="node default" id="entity-LIBRARY_ADMIN-2" transform="translate(418.66796875, 237.25)"><g style=""><path d="M-80.71875 -42.75 L80.71875 -42.75 L80.71875 42.75 L-80.71875 42.75" stroke="none" stroke-width="0" fill="#ECECFF"/><path d="M-80.71875 -42.75 C-43.24072488147137 -42.75, -5.762699762942745 -42.75, 80.71875 -42.75 M-80.71875 -42.75 C-39.14348495705039 -42.75, 2.43178008589922 -42.75, 80.71875 -42.75 M80.71875 -42.75 C80.71875 -20.87923348332649, 80.71875 0.991533033347018, 80.71875 42.75 M80.71875 -42.75 C80.71875 -9.765883843682424, 80.71875 23.218232312635152, 80.71875 42.75 M80.71875 42.75 C38.20148427481272 42.75, -4.315781450374558 42.75, -80.71875 42.75 M80.71875 42.75 C30.59534690858557 42.75, -19.528056182828863 42.75, -80.71875 42.75 M-80.71875 42.75 C-80.71875 21.71562995829448, -80.71875 0.6812599165889566, -80.71875 -42.75 M-80.71875 42.75 C-80.71875 23.834264941793354, -80.71875 4.918529883586707, -80.71875 -42.75" stroke="#9370DB" stroke-width="1.3" fill="none" stroke-dasharray="0 0"/></g><g style="" class="row-rect-odd"><path d="M-80.71875 0 L80.71875 0 L80.71875 42.75 L-80.71875 42.75" stroke="none" stroke-width="0" fill="hsl(240, 100%, 100%)"/><path d="M-80.71875 0 C-39.397493298651796 0, 1.9237634026964088 0, 80.71875 0 M-80.71875 0 C-30.686158135846384 0, 19.346433728307233 0, 80.71875 0 M80.71875 0 C80.71875 11.996953747245113, 80.71875 23.993907494490227, 80.71875 42.75 M80.71875 0 C80.71875 14.834188143493563, 80.71875 29.668376286987126, 80.71875 42.75 M80.71875 42.75 C38.93216546585885 42.75, -2.854419068282297 42.75, -80.71875 42.75 M80.71875 42.75 C25.304727331307937 42.75, -30.109295337384125 42.75, -80.71875 42.75 M-80.71875 42.75 C-80.71875 28.58769724584854, -80.71875 14.425394491697073, -80.71875 0 M-80.71875 42.75 C-80.71875 32.852581708339684, -80.71875 22.955163416679373, -80.71875 0" stroke="#9370DB" stroke-width="1.3" fill="none" stroke-dasharray="0 0"/></g><g class="label name" transform="translate(-55.71875, -33.375)" style=""><foreignObject width="111.4375" height="24"><div xmlns="http://www.w3.org/1999/xhtml" style="display: table-cell; white-space: nowrap; line-height: 1.5; max-width: 233px; text-align: start;"><span class="nodeLabel"><p>LIBRARY_ADMIN</p></span></div></foreignObject></g><g class="label attribute-type" transform="translate(-68.21875, 9.375)" style=""><foreignObject width="40.375" height="24"><div xmlns="http://www.w3.org/1999/xhtml" style="display: table-cell; white-space: nowrap; line-height: 1.5; max-width: 136px; text-align: start;"><span class="nodeLabel"><p>string</p></span></div></foreignObject></g><g class="label attribute-name" transform="translate(1.96875, 9.375)" style=""><foreignObject width="13.484375" height="24"><div xmlns="http://www.w3.org/1999/xhtml" style="display: table-cell; white-space: nowrap; line-height: 1.5; max-width: 113px; text-align: start;"><span class="nodeLabel"><p>id</p></span></div></foreignObject></g><g class="label attribute-keys" transform="translate(45.265625, 9.375)" style=""><foreignObject width="18.140625" height="24"><div xmlns="http://www.w3.org/1999/xhtml" style="display: table-cell; white-space: nowrap; line-height: 1.5; max-width: 122px; text-align: start;"><span class="nodeLabel"><p>PK</p></span></div></foreignObject></g><g class="label attribute-comment" transform="translate(93.21875, 9.375)" style=""><foreignObject width="0" height="0"><div xmlns="http://www.w3.org/1999/xhtml" style="display: table-cell; white-space: nowrap; line-height: 1.5; max-width: 100px; text-align: start;"><span class="nodeLabel"></span></div></foreignObject></g><g class="divider"><path d="M-80.71875 0 C-42.25571161235789 0, -3.7926732247157844 0, 80.71875 0 M-80.71875 0 C-31.53405154928349 0, 17.65064690143302 0, 80.71875 0" stroke="#9370DB" stroke-width="1.3" fill="none" stroke-dasharray="0 0"/></g><g class="divider"><path d="M-10.53125 0 C-10.53125 14.42311854951767, -10.53125 28.84623709903534, -10.53125 42.75 M-10.53125 0 C-10.53125 10.022901453317614, -10.53125 20.045802906635227, -10.53125 42.75" stroke="#9370DB" stroke-width="1.3" fill="none" stroke-dasharray="0 0"/></g><g class="divider"><path d="M32.765625 0 C32.765625 16.888188866838703, 32.765625 33.77637773367741, 32.765625 42.75 M32.765625 0 C32.765625 16.50339349888355, 32.765625 33.0067869977671, 32.765625 42.75" stroke="#9370DB" stroke-width="1.3" fill="none" stroke-dasharray="0 0"/></g><g class="divider"><path d="M-80.71875 0 C-45.55058137614403 0, -10.382412752288062 0, 80.71875 0 M-80.71875 0 C-30.082764347454628 0, 20.553221305090744 0, 80.71875 0" stroke="#9370DB" stroke-width="1.3" fill="none" stroke-dasharray="0 0"/></g></g><g class="node default" id="entity-BOOK-3" transform="translate(324.375, 423.75)"><g style=""><path d="M-81.109375 -42.75 L81.109375 -42.75 L81.109375 42.75 L-81.109375 42.75" stroke="none" stroke-width="0" fill="#ECECFF"/><path d="M-81.109375 -42.75 C-36.6941304929597 -42.75, 7.721114014080598 -42.75, 81.109375 -42.75 M-81.109375 -42.75 C-37.39952296264208 -42.75, 6.310329074715838 -42.75, 81.109375 -42.75 M81.109375 -42.75 C81.109375 -10.844892016428265, 81.109375 21.06021596714347, 81.109375 42.75 M81.109375 -42.75 C81.109375 -10.484890674026651, 81.109375 21.780218651946697, 81.109375 42.75 M81.109375 42.75 C31.85933986223671 42.75, -17.390695275526582 42.75, -81.109375 42.75 M81.109375 42.75 C23.500679498618148 42.75, -34.108016002763705 42.75, -81.109375 42.75 M-81.109375 42.75 C-81.109375 10.547174568731634, -81.109375 -21.65565086253673, -81.109375 -42.75 M-81.109375 42.75 C-81.109375 22.436828592045455, -81.109375 2.1236571840909093, -81.109375 -42.75" stroke="#9370DB" stroke-width="1.3" fill="none" stroke-dasharray="0 0"/></g><g style="" class="row-rect-odd"><path d="M-81.109375 0 L81.109375 0 L81.109375 42.75 L-81.109375 42.75" stroke="none" stroke-width="0" fill="hsl(240, 100%, 100%)"/><path d="M-81.109375 0 C-26.085382589764073 0, 28.938609820471854 0, 81.109375 0 M-81.109375 0 C-22.82188797711433 0, 35.46559904577134 0, 81.109375 0 M81.109375 0 C81.109375 12.048001845106244, 81.109375 24.096003690212488, 81.109375 42.75 M81.109375 0 C81.109375 9.6873645242294, 81.109375 19.3747290484588, 81.109375 42.75 M81.109375 42.75 C36.166109494129635 42.75, -8.777156011740729 42.75, -81.109375 42.75 M81.109375 42.75 C41.6928330810046 42.75, 2.2762911620092012 42.75, -81.109375 42.75 M-81.109375 42.75 C-81.109375 33.12350613096122, -81.109375 23.49701226192243, -81.109375 0 M-81.109375 42.75 C-81.109375 31.55050417312879, -81.109375 20.35100834625758, -81.109375 0" stroke="#9370DB" stroke-width="1.3" fill="none" stroke-dasharray="0 0"/></g><g class="label name" transform="translate(-19.9140625, -33.375)" style=""><foreignObject width="39.828125" height="24"><div xmlns="http://www.w3.org/1999/xhtml" style="display: table-cell; white-space: nowrap; line-height: 1.5; max-width: 147px; text-align: start;"><span class="nodeLabel"><p>BOOK</p></span></div></foreignObject></g><g class="label attribute-type" transform="translate(-68.609375, 9.375)" style=""><foreignObject width="40.375" height="24"><div xmlns="http://www.w3.org/1999/xhtml" style="display: table-cell; white-space: nowrap; line-height: 1.5; max-width: 136px; text-align: start;"><span class="nodeLabel"><p>string</p></span></div></foreignObject></g><g class="label attribute-name" transform="translate(-3.234375, 9.375)" style=""><foreignObject width="28.703125" height="24"><div xmlns="http://www.w3.org/1999/xhtml" style="display: table-cell; white-space: nowrap; line-height: 1.5; max-width: 128px; text-align: start;"><span class="nodeLabel"><p>isbn</p></span></div></foreignObject></g><g class="label attribute-keys" transform="translate(50.46875, 9.375)" style=""><foreignObject width="18.140625" height="24"><div xmlns="http://www.w3.org/1999/xhtml" style="display: table-cell; white-space: nowrap; line-height: 1.5; max-width: 122px; text-align: start;"><span class="nodeLabel"><p>PK</p></span></div></foreignObject></g><g class="label attribute-comment" transform="translate(93.609375, 9.375)" style=""><foreignObject width="0" height="0"><div xmlns="http://www.w3.org/1999/xhtml" style="display: table-cell; white-space: nowrap; line-height: 1.5; max-width: 100px; text-align: start;"><span class="nodeLabel"></span></div></foreignObject></g><g class="divider"><path d="M-81.109375 0 C-31.12803538186762 0, 18.853304236264762 0, 81.109375 0 M-81.109375 0 C-39.43615287369466 0, 2.237069252610681 0, 81.109375 0" stroke="#9370DB" stroke-width="1.3" fill="none" stroke-dasharray="0 0"/></g><g class="divider"><path d="M-15.734375 0 C-15.734375 14.099583498858129, -15.734375 28.199166997716258, -15.734375 42.75 M-15.734375 0 C-15.734375 15.112027989513278, -15.734375 30.224055979026556, -15.734375 42.75" stroke="#9370DB" stroke-width="1.3" fill="none" stroke-dasharray="0 0"/></g><g class="divider"><path d="M37.96875 0 C37.96875 16.934433463009967, 37.96875 33.86886692601993, 37.96875 42.75 M37.96875 0 C37.96875 11.826357608338569, 37.96875 23.652715216677137, 37.96875 42.75" stroke="#9370DB" stroke-width="1.3" fill="none" stroke-dasharray="0 0"/></g><g class="divider"><path d="M-81.109375 0 C-22.006643027177937 0, 37.09608894564413 0, 81.109375 0 M-81.109375 0 C-39.7955467955295 0, 1.518281408940993 0, 81.109375 0" stroke="#9370DB" stroke-width="1.3" fill="none" stroke-dasharray="0 0"/></g></g><g class="node default" id="entity-BOOK_CATEGORY-4" transform="translate(324.375, 610.25)"><g style=""><path d="M-86.2734375 -42.75 L86.2734375 -42.75 L86.2734375 42.75 L-86.2734375 42.75" stroke="none" stroke-width="0" fill="#ECECFF"/><path d="M-86.2734375 -42.75 C-33.290146281355426 -42.75, 19.693144937289148 -42.75, 86.2734375 -42.75 M-86.2734375 -42.75 C-35.10466859299722 -42.75, 16.064100314005557 -42.75, 86.2734375 -42.75 M86.2734375 -42.75 C86.2734375 -23.453854605955357, 86.2734375 -4.1577092119107135, 86.2734375 42.75 M86.2734375 -42.75 C86.2734375 -9.799430299841738, 86.2734375 23.151139400316524, 86.2734375 42.75 M86.2734375 42.75 C31.74707279364005 42.75, -22.7792919127199 42.75, -86.2734375 42.75 M86.2734375 42.75 C39.0066532640156 42.75, -8.260130971968806 42.75, -86.2734375 42.75 M-86.2734375 42.75 C-86.2734375 15.289967563781687, -86.2734375 -12.170064872436626, -86.2734375 -42.75 M-86.2734375 42.75 C-86.2734375 13.032354433741208, -86.2734375 -16.685291132517584, -86.2734375 -42.75" stroke="#9370DB" stroke-width="1.3" fill="none" stroke-dasharray="0 0"/></g><g style="" class="row-rect-odd"><path d="M-86.2734375 0 L86.2734375 0 L86.2734375 42.75 L-86.2734375 42.75" stroke="none" stroke-width="0" fill="hsl(240, 100%, 100%)"/><path d="M-86.2734375 0 C-45.513417880786186 0, -4.7533982615723716 0, 86.2734375 0 M-86.2734375 0 C-22.145579122951176 0, 41.98227925409765 0, 86.2734375 0 M86.2734375 0 C86.2734375 8.76000194246811, 86.2734375 17.52000388493622, 86.2734375 42.75 M86.2734375 0 C86.2734375 9.547402064163649, 86.2734375 19.094804128327297, 86.2734375 42.75 M86.2734375 42.75 C32.848245993935926 42.75, -20.576945512128148 42.75, -86.2734375 42.75 M86.2734375 42.75 C31.313327656329164 42.75, -23.64678218734167 42.75, -86.2734375 42.75 M-86.2734375 42.75 C-86.2734375 28.770743292218043, -86.2734375 14.791486584436083, -86.2734375 0 M-86.2734375 42.75 C-86.2734375 30.43158041008897, -86.2734375 18.11316082017794, -86.2734375 0" stroke="#9370DB" stroke-width="1.3" fill="none" stroke-dasharray="0 0"/></g><g class="label name" transform="translate(-61.2734375, -33.375)" style=""><foreignObject width="122.546875" height="24"><div xmlns="http://www.w3.org/1999/xhtml" style="display: table-cell; white-space: nowrap; line-height: 1.5; max-width: 239px; text-align: start;"><span class="nodeLabel"><p>BOOK_CATEGORY</p></span></div></foreignObject></g><g class="label attribute-type" transform="translate(-73.7734375, 9.375)" style=""><foreignObject width="40.375" height="24"><div xmlns="http://www.w3.org/1999/xhtml" style="display: table-cell; white-space: nowrap; line-height: 1.5; max-width: 136px; text-align: start;"><span class="nodeLabel"><p>string</p></span></div></foreignObject></g><g class="label attribute-name" transform="translate(0.1171875, 9.375)" style=""><foreignObject width="13.484375" height="24"><div xmlns="http://www.w3.org/1999/xhtml" style="display: table-cell; white-space: nowrap; line-height: 1.5; max-width: 113px; text-align: start;"><span class="nodeLabel"><p>id</p></span></div></foreignObject></g><g class="label attribute-keys" transform="translate(47.1171875, 9.375)" style=""><foreignObject width="18.140625" height="24"><div xmlns="http://www.w3.org/1999/xhtml" style="display: table-cell; white-space: nowrap; line-height: 1.5; max-width: 122px; text-align: start;"><span class="nodeLabel"><p>PK</p></span></div></foreignObject></g><g class="label attribute-comment" transform="translate(98.7734375, 9.375)" style=""><foreignObject width="0" height="0"><div xmlns="http://www.w3.org/1999/xhtml" style="display: table-cell; white-space: nowrap; line-height: 1.5; max-width: 100px; text-align: start;"><span class="nodeLabel"></span></div></foreignObject></g><g class="divider"><path d="M-86.2734375 0 C-31.940318102490117 0, 22.392801295019765 0, 86.2734375 0 M-86.2734375 0 C-32.43903741398801 0, 21.39536267202398 0, 86.2734375 0" stroke="#9370DB" stroke-width="1.3" fill="none" stroke-dasharray="0 0"/></g><g class="divider"><path d="M-12.3828125 0 C-12.3828125 16.112901656617833, -12.3828125 32.225803313235666, -12.3828125 42.75 M-12.3828125 0 C-12.3828125 9.308459427129032, -12.3828125 18.616918854258063, -12.3828125 42.75" stroke="#9370DB" stroke-width="1.3" fill="none" stroke-dasharray="0 0"/></g><g class="divider"><path d="M34.6171875 0 C34.6171875 12.362985892647709, 34.6171875 24.725971785295418, 34.6171875 42.75 M34.6171875 0 C34.6171875 11.70647491849314, 34.6171875 23.41294983698628, 34.6171875 42.75" stroke="#9370DB" stroke-width="1.3" fill="none" stroke-dasharray="0 0"/></g><g class="divider"><path d="M-86.2734375 0 C-46.88886959157615 0, -7.504301683152306 0, 86.2734375 0 M-86.2734375 0 C-37.39677536511685 0, 11.479886769766296 0, 86.2734375 0" stroke="#9370DB" stroke-width="1.3" fill="none" stroke-dasharray="0 0"/></g></g><g class="node default" id="entity-BORROWER-5" transform="translate(712.88671875, 237.25)"><g style=""><path d="M-73.5 -42.75 L73.5 -42.75 L73.5 42.75 L-73.5 42.75" stroke="none" stroke-width="0" fill="#ECECFF"/><path d="M-73.5 -42.75 C-42.64945231562058 -42.75, -11.79890463124115 -42.75, 73.5 -42.75 M-73.5 -42.75 C-43.35650919307754 -42.75, -13.213018386155085 -42.75, 73.5 -42.75 M73.5 -42.75 C73.5 -23.710108076918686, 73.5 -4.670216153837373, 73.5 42.75 M73.5 -42.75 C73.5 -9.418571381512379, 73.5 23.912857236975242, 73.5 42.75 M73.5 42.75 C29.56437584259956 42.75, -14.37124831480088 42.75, -73.5 42.75 M73.5 42.75 C26.254762457167104 42.75, -20.990475085665793 42.75, -73.5 42.75 M-73.5 42.75 C-73.5 20.042116102983318, -73.5 -2.665767794033364, -73.5 -42.75 M-73.5 42.75 C-73.5 25.260317621927314, -73.5 7.770635243854628, -73.5 -42.75" stroke="#9370DB" stroke-width="1.3" fill="none" stroke-dasharray="0 0"/></g><g style="" class="row-rect-odd"><path d="M-73.5 0 L73.5 0 L73.5 42.75 L-73.5 42.75" stroke="none" stroke-width="0" fill="hsl(240, 100%, 100%)"/><path d="M-73.5 0 C-20.064358926478064 0, 33.37128214704387 0, 73.5 0 M-73.5 0 C-20.741392573738352 0, 32.017214852523296 0, 73.5 0 M73.5 0 C73.5 8.958613984444197, 73.5 17.917227968888394, 73.5 42.75 M73.5 0 C73.5 16.532983586794746, 73.5 33.06596717358949, 73.5 42.75 M73.5 42.75 C39.780350119810116 42.75, 6.060700239620232 42.75, -73.5 42.75 M73.5 42.75 C19.794865399621315 42.75, -33.91026920075737 42.75, -73.5 42.75 M-73.5 42.75 C-73.5 31.630379376731092, -73.5 20.510758753462184, -73.5 0 M-73.5 42.75 C-73.5 32.72958849441834, -73.5 22.70917698883668, -73.5 0" stroke="#9370DB" stroke-width="1.3" fill="none" stroke-dasharray="0 0"/></g><g class="label name" transform="translate(-40.3828125, -33.375)" style=""><foreignObject width="80.765625" height="24"><div xmlns="http://www.w3.org/1999/xhtml" style="display: table-cell; white-space: nowrap; line-height: 1.5; max-width: 193px; text-align: start;"><span class="nodeLabel"><p>BORROWER</p></span></div></foreignObject></g><g class="label attribute-type" transform="translate(-61, 9.375)" style=""><foreignObject width="40.375" height="24"><div xmlns="http://www.w3.org/1999/xhtml" style="display: table-cell; white-space: nowrap; line-height: 1.5; max-width: 136px; text-align: start;"><span class="nodeLabel"><p>string</p></span></div></foreignObject></g><g class="label attribute-name" transform="translate(4.375, 9.375)" style=""><foreignObject width="13.484375" height="24"><div xmlns="http://www.w3.org/1999/xhtml" style="display: table-cell; white-space: nowrap; line-height: 1.5; max-width: 113px; text-align: start;"><span class="nodeLabel"><p>id</p></span></div></foreignObject></g><g class="label attribute-keys" transform="translate(42.859375, 9.375)" style=""><foreignObject width="18.140625" height="24"><div xmlns="http://www.w3.org/1999/xhtml" style="display: table-cell; white-space: nowrap; line-height: 1.5; max-width: 122px; text-align: start;"><span class="nodeLabel"><p>PK</p></span></div></foreignObject></g><g class="label attribute-comment" transform="translate(86, 9.375)" style=""><foreignObject width="0" height="0"><div xmlns="http://www.w3.org/1999/xhtml" style="display: table-cell; white-space: nowrap; line-height: 1.5; max-width: 100px; text-align: start;"><span class="nodeLabel"></span></div></foreignObject></g><g class="divider"><path d="M-73.5 0 C-28.26774571080997 0, 16.964508578380062 0, 73.5 0 M-73.5 0 C-15.8123507389084 0, 41.8752985221832 0, 73.5 0" stroke="#9370DB" stroke-width="1.3" fill="none" stroke-dasharray="0 0"/></g><g class="divider"><path d="M-8.125 0 C-8.125 14.964293010419572, -8.125 29.928586020839145, -8.125 42.75 M-8.125 0 C-8.125 12.23028398133271, -8.125 24.46056796266542, -8.125 42.75" stroke="#9370DB" stroke-width="1.3" fill="none" stroke-dasharray="0 0"/></g><g class="divider"><path d="M30.359375 0 C30.359375 15.623545609473627, 30.359375 31.247091218947254, 30.359375 42.75 M30.359375 0 C30.359375 16.745231808709622, 30.359375 33.490463617419245, 30.359375 42.75" stroke="#9370DB" stroke-width="1.3" fill="none" stroke-dasharray="0 0"/></g><g class="divider"><path d="M-73.5 0 C-23.521430393785636 0, 26.45713921242873 0, 73.5 0 M-73.5 0 C-43.84847159767804 0, -14.196943195356077 0, 73.5 0" stroke="#9370DB" stroke-width="1.3" fill="none" stroke-dasharray="0 0"/></g></g></g></g></g></svg>